<?xml version="1.0" encoding="utf-8"?>
<!-- Generator: Adobe Illustrator 18.1.1, SVG Export Plug-In . SVG Version: 6.00 Build 0)  -->
<svg version="1.1" id="Layer_1" xmlns="http://www.w3.org/2000/svg" xmlns:xlink="http://www.w3.org/1999/xlink" x="0px" y="0px"
	 viewBox="0 0 3000 3000" enable-background="new 0 0 3000 3000" xml:space="preserve">
<path fill="#7DC241" d="M2019.2,1532.1c0,14.6-5.5,27.3-16.7,38.5l-780.1,780.1c-11.2,11.2-23.9,16.7-38.5,16.7s-27.3-5.5-38.5-16.7
	l-83.7-83.7c-11.2-11.2-16.7-23.9-16.7-38.5s5.5-27.3,16.7-38.5l657.9-657.9l-657.9-657.9c-11.2-11.2-16.7-23.9-16.7-38.5
	c0-14.6,5.5-27.3,16.7-38.5l83.7-83.7c11.2-11.2,23.9-16.7,38.5-16.7s27.3,5.5,38.5,16.7l780.1,780.1
	C2013.6,1504.9,2019.2,1517.6,2019.2,1532.1z"/>
</svg>
